<?xml version="1.0" encoding="UTF-8"?>
<svg id="Capa_2" data-name="Capa 2" xmlns="http://www.w3.org/2000/svg" viewBox="0 0 79.46 40.11">
  <defs>
    <style>
      .cls-1 {
        fill: #fff;
      }
    </style>
  </defs>
  <g id="Capa_1-2" data-name="Capa 1">
    <path class="cls-1" d="M77.76,12.07c-2.51-5.82-7.37-9.98-13.32-11.41-5.83-1.4-12-.01-16.46,3.7-3.77,2.96-6.53,5.16-8.55,6.79-.09-.09-.19-.19-.28-.28l-.9-.9C32.29,3.94,27.15-1.26,17.04.27,8.34,1.58,1.77,8.15.29,16.99c-1.43,8.59,2.49,16.67,10.01,20.59,11.71,6.1,22.66-2.19,25.74-4.88l.77-.67-8.04-8.75-.74.77c-.47.5-1.06,1.1-1.18,1.2-2.57,2.23-5.59,3.29-8.27,2.91-2.16-.3-4.01-1.56-5.36-3.63-2.63-4.04-1.14-8.01.94-10.19,2.03-2.12,5.83-3.75,9.9-1.39,4.08,3.38,7.9,7.48,11.58,11.46,3.46,3.73,7.04,7.58,10.85,10.85,3.78,3.24,8.23,4.87,12.72,4.87,4.1,0,8.23-1.35,11.92-4.07,6.41-4.72,10.94-13.96,6.62-23.97ZM63.91,26.87c-2.46,1.6-6.37,2.25-9.96-.72-.29-.24-.58-.49-.88-.75-.58-.92-4.4-7.46,1.76-12.09,2.18-1.57,4.86-1.97,7.36-1.1,2.51.88,4.42,2.88,5.12,5.37,1.02,3.64-.31,7.29-3.4,9.29Z"/>
  </g>
</svg>