<?xml version="1.0" encoding="UTF-8"?>
<svg id="Capa_2" data-name="Capa 2" xmlns="http://www.w3.org/2000/svg" viewBox="0 0 249.22 55.11">
  <defs>
    <style>
      .cls-1 {
        fill: #fff;
      }
    </style>
  </defs>
  <g id="Capa_1-2" data-name="Capa 1">
    <g>
      <path class="cls-1" d="M32.08,19.5c-1.37-.84-2.88-1.48-4.54-1.91-1.66-.43-3.3-.76-4.93-.97-1.63-.21-3.13-.43-4.5-.65-1.37-.22-2.46-.53-3.28-.94-.82-.41-1.22-1-1.22-1.76s.47-1.42,1.4-1.94c.94-.53,2.56-.79,4.86-.79,1.73,0,3.55.21,5.47.61,1.92.41,3.84,1.16,5.76,2.27l4.1-9.29c-1.92-1.1-4.28-1.93-7.09-2.48-2.81-.55-5.58-.83-8.32-.83-4.08,0-7.54.56-10.37,1.69-2.83,1.13-4.98,2.66-6.44,4.61-1.46,1.94-2.2,4.17-2.2,6.66,0,2.21.41,4.03,1.22,5.47.82,1.44,1.91,2.58,3.28,3.42,1.37.84,2.88,1.46,4.54,1.87,1.66.41,3.3.73,4.93.97,1.63.24,3.13.46,4.5.65,1.37.19,2.47.47,3.31.83.84.36,1.26.92,1.26,1.69,0,.82-.44,1.46-1.33,1.94-.89.48-2.48.72-4.79.72s-4.75-.32-7.2-.97c-2.45-.65-4.58-1.52-6.41-2.63L0,37.11c1.92,1.15,4.45,2.11,7.6,2.88,3.14.77,6.37,1.15,9.68,1.15,4.22,0,7.76-.58,10.62-1.73,2.86-1.15,5.02-2.69,6.48-4.61,1.46-1.92,2.2-4.08,2.2-6.48,0-2.21-.41-4.02-1.22-5.44-.82-1.42-1.91-2.54-3.28-3.38Z"/>
      <path class="cls-1" d="M60.2,25.31L50.62,1.47h-14.04l16.72,39.52c-.53,1-1.13,1.78-1.81,2.31-.86.67-2.04,1.01-3.53,1.01-1.06,0-2.12-.2-3.2-.61s-2.03-.97-2.84-1.69l-4.75,9.58c1.3,1.05,2.99,1.91,5.08,2.56,2.09.65,4.16.97,6.23.97,2.59,0,4.96-.38,7.09-1.15,2.14-.77,4.08-2.1,5.83-4,1.75-1.9,3.3-4.52,4.64-7.88L82.87,1.47h-13.03l-9.64,23.84Z"/>
      <path class="cls-1" d="M120.02,2.66c-2.45-1.22-5.18-1.84-8.21-1.84-3.26,0-6.19.71-8.78,2.12-1.35.74-2.55,1.67-3.6,2.8V1.47h-13.03v39.02h13.68v-18.86c0-2.16.34-3.91,1.01-5.26s1.61-2.34,2.81-2.99c1.2-.65,2.52-.97,3.96-.97,2.02,0,3.59.64,4.72,1.91,1.13,1.27,1.69,3.3,1.69,6.08v20.09h13.68v-22.32c0-4.03-.71-7.32-2.12-9.86-1.42-2.54-3.35-4.43-5.8-5.65Z"/>
      <path class="cls-1" d="M239.79,3.51c-1.45.82-2.67,1.88-3.67,3.16V1.97h-13.03v39.02h13.68v-17.93c0-3.41.86-5.87,2.59-7.38s3.98-2.27,6.77-2.27c.53,0,1.02.01,1.48.04.46.03,1,.08,1.62.18V1.32c-3.7,0-6.84.73-9.43,2.2Z"/>
      <path class="cls-1" d="M204.76,4.51c-2.24-1.83-4.86-3.15-7.74-3.84-5.94-1.42-12.22-.01-16.77,3.77-3.85,3.03-6.67,5.27-8.74,6.93-.1-.1-.2-.2-.3-.3l-.91-.92c-6.07-6.13-11.31-11.42-21.61-9.88-8.86,1.34-15.56,8.03-17.06,17.04-1.46,8.75,2.54,16.98,10.19,20.97,11.93,6.22,23.09-2.24,26.23-4.98l.77-.67-8.17-8.9-.74.77c-.48.51-1.08,1.12-1.2,1.22-2.63,2.28-5.71,3.36-8.45,2.97-2.21-.31-4.1-1.59-5.48-3.71-2.69-4.13-1.16-8.19.97-10.41,2.07-2.17,5.96-3.83,10.12-1.42,4.17,3.45,8.05,7.63,11.81,11.68,3.53,3.8,7.17,7.73,11.06,11.06,3.85,3.3,8.38,4.96,12.96,4.96,4.17,0,8.38-1.38,12.15-4.15.31-.23.61-.48.91-.73v5h12.76V1.97h-12.76v2.55ZM196.5,27.4c-2.52,1.64-6.51,2.3-10.18-.74-.3-.25-.6-.5-.9-.77-.6-.94-4.5-7.62,1.8-12.36,2.23-1.61,4.97-2.02,7.52-1.13,2.56.89,4.52,2.95,5.23,5.49,1.04,3.72-.32,7.45-3.47,9.5Z"/>
    </g>
  </g>
</svg>